<svg xmlns="http://www.w3.org/2000/svg" id="_레이어_2" viewBox="0 0 652.69 173.51"><defs><style>.cls-1{stroke-width:0}</style></defs><g id="Layer_2"><path d="M133.77 107.3c-4.28 0-9.29 2.61-14.83 10.5-3.66 5.22-7.15 13.05-10.6 18.85-1.36-3.81-3.08-10.13-3.08-17.39V97.8c2.35.21 11.12 1.57 24.85 9.56.52-5.95 3.86-9.4 14.2-14.31 10.39-4.86 20.62-6.21 20.62-6.21s-3.29-1.67-4.8-13.52-1.46-29.45-1.46-32.37c0-8.35 4.7-14.57 8.56-18.95h-5.27c-10.13 0-22.61-5.9-26.32-7.52s-15.51-8.41-15.51-8.41-9.4 13.31-20.99 24.23c-3.5 3.29-7.1 6.27-10.7 8.82-.89-.68-10.65-8.41-21.98-17.7C54.56 11.64 43.6 0 43.6 0s-6.53 10.08-20 20.57C10.18 31.17 0 37.39 0 37.39c6.79 2.51 10.23 8.98 13.16 14.41 4.18 6.94 8.41 10.81 14.93 10.81 3.97 0 7-2.87 7-2.87s-2.3.78-4.44.78c-3.13 0-7.26-2.04-7.26-6.32 0-2.61 1.98-5.69 8.15-5.69s14.62 5.22 19.58 14.15c1.62-3.08 4.59-8.04 8.41-12.22 1.67 2.25 4.33 7.21 4.33 15.61v10.23h-.31c-4.28 0-13.63-3.97-20.42-14.15 0 0-6.42 10.03-18.64 18.69C12.27 89.49 3.34 92.05 3.34 92.05s6.53 4.65 6.53 13.16v24.18c0 10.39-5.01 14.52-6.53 15.46 2.92.37 6.06 2.09 9.03 5.06 2.98 2.98 7.57 10.13 16.13 13.37s14.52 3.19 16.97 3.34c2.09-4.33 7.52-9.56 17.7-11.85-.73 7.05-1.78 11.23-1.78 11.23s11.02-4.33 22.61-15.25l.26-.26s13.37 3.81 20.05 6.37c6.74 2.56 12.17 5.9 15.14 7.47 3.03 1.57 4.96 2.72 9.4 2.72s11.38-3.03 16.34-9.66c4.96-6.68 8.72-15.66 12.58-21.46s9.45-12.37 14.88-11.17c0 0-20.68-11.54-26.32-13.89s-8.35-3.6-12.64-3.6l.05.05Zm-14.62-91.06c-2.87 5.01-5.64 11.54-5.64 26.47v33.57c0 10.6-4.07 14.78-8.25 17.39V46.21c0-7.1 1.36-21.2 13.89-29.92zM60.98 48.93c1.15-1.1 2.35-2.14 3.6-3.03 6.27-4.33 11.49-5.17 14.99-5.17 1.2 0 3.19.47 5.17.99-7.05 4.49-13.89 7.21-19.48 7.21zm-2.45 95.76c-2.66-4.18-3.13-8.04-3.13-15.09s.42-26.63.42-34.31c0-7.26 2.51-12.27 8.09-13.47v59c0 3.29-.1 6.32-.31 9.09-1.04-.63-3.13-2.14-5.06-5.17v-.05Zm44.7-1.31c-4.02 3.19-10.29 4.33-15.72 4.02 8.15-7.57 10.08-8.62 15.61-8.62 1.04 0 2.3.26 3.5.63-1.15 1.72-2.3 3.08-3.39 3.97M322.79 96.34c0-6.42 3.81-16.19 7-21.72-4.86 2.3-10.08 3.76-19.53 3.76s-20.47-2.82-25.38-5.95-6.21-4.02-6.37-12.53c-2.92 1.88-4.28 2.92-8.09 2.92-7.62 0-19.84-8.98-29.14-8.98-7.26 0-13.63 3.86-21.98 10.65s-17.86 14.99-29.45 14.99h-4.28s6-5.59 16.6-11.75 15.77-6.84 19.37-5.53V42.1c1.93-.73 10.44-3.76 23.39-3.76 14.78 0 26.79 5.38 33.37 10.39 6.58 4.96 12.84 12.58 13.58 16.03 2.19-6.74 4.75-12.95 14.62-21.36 9.82-8.46 19.95-17.49 22.09-35.35-2.19 2.82-13.05 15.09-39.89 15.09-17.86 0-32.01-9.56-37.91-19.16 0 0-2.66 7.1-10.18 16.66-2.35-.99-12.11-5.59-22.24-14.99-6.11 7.68-22.4 25.12-42.82 30.44 4.65 3.6 8.51 12.64 8.51 25.17s-3.81 21.04-6.53 24.07c4.33-.63 18.95-2.72 35.14 3.24 16.19 5.95 34.78 18.95 47.72 18.95s20.73-5.38 28.61-9.66 33.68-16.34 33.68-16.34-4.23 6.63-18.07 16.19-28.4 11.07-34.88 11.75c1.67 2.98 3.81 8.25 3.81 20.73s-2.98 21.88-3.76 24.44-2.51 5.17-5.95 5.17-9.76-3.45-16.87-5.27c-7.1-1.78-10.86-3.03-12.53-4.02s-5.27-5.59-5.27-12.74V125.6c0-5.17 3.39-9.82 8.46-10.23-5.27-2.19-12.79-4.33-17.65-8.72s-4.7-7.05-3.76-10.65c-3.97.47-8.46 4.12-13.26 8.93-4.86 4.75-11.07 10.91-26.47 11.44 3.6 2.51 7.94 7.62 7.94 18.12s-5.38 22.77-8.98 28.51c4.91-4.23 15.77-10.23 25.85-10.23h4.65c9.4 0 28.14 3.76 38.38 7.05 10.23 3.34 17.91 6.74 19.79 9.29 1.88 2.56 2.14 4.44 2.14 4.44s6.21-10.08 14.67-17.23c8.46-7.1 15.77-11.02 27-12.06 2.35-5.33 8.46-14.31 17.49-14.31h2.98s-3.34-5.69-4.49-10.86c-1.2-5.17-1.04-8.88-1.04-10.08V96.43l-.05-.05Zm-88.92-74.31c1.93 0 3.6.42 4.75.78-.37.42-.68.84-1.04 1.25-6.21 7.15-12.37 10.97-16.03 12.79v-.57c0-4.23 2.4-14.25 12.37-14.25zM449.62 12.17c-10.76-4.75-16.45-8.25-16.45-8.25s-18.9 19.32-34.31 32.74v-3.13c0-8.04 1.46-12.9 8.51-18.85 0 0-19.68 4.44-29.34-9.09-3.13 6.58-9.35 15.72-20.78 23.13-11.44 7.41-24.54 9.66-24.54 9.66s11.8 2.82 11.8 13.84c0 8.04-8.15 12.53-8.15 12.53s6.68 3.92 6.68 29.92v22.5c0 32.69-6.79 44.28-10.34 50.65 9.4-5.01 22.14-10.29 31.8-10.29 5.33 0 7.88 2.4 7.88 2.4s4.75-2.14 9.24-2.14 11.54 2.3 19.16 7.99c-3.66-7.57-5.69-16.19-5.69-25.64V115.7c1.67 1.41 7.26 5.95 12.79 8.15 6.63 2.61 15.77 7.47 15.77 13.16 0 3.66-2.04 5.95-2.04 5.95s2.14-1.62 5.8-4.18 15.09-8.72 29.19-15.72 19.95-10.18 23.18-13.26 5.17-9.66 5.17-17.54V45.74c0-10.29 4.18-20.26 7.36-27.73 0 0-2.98 2.45-11.44 2.45s-20.52-3.55-31.33-8.3h.05Zm-55.4 28.87-18.75 15.82s3.66-15.51 18.75-30.65zm23.34 9.82c-5.95 8.51-12.9 12.11-18.59 13.58 2.98 1.25 6.27 4.23 6.27 9.66v27.31c0 4.59-1.72 11.12-7.88 11.12-.84 0-1.62 0-2.19-.1V56.61c0-7.99 1.51-10.08 5.33-13.68 3.81-3.55 14.41-13.58 14.41-13.58s12.84 6.68 18.28 9.45c-4.39.73-10.08 4.07-15.61 12.01v.05Zm22.56 14.57s8.51-.42 8.51 10.97v34.78c0 4.75-3.08 11.38-7.99 14.52-3.13 2.04-5.17 2.61-7.15 2.61s-3.5-.94-3.5-3.81V58.9c0-4.39 1.46-14.78 5.27-19.01 4.12 1.98 10.44 4.23 15.61 4.23 5.43 0 13.16-2.45 19.95-7.15 0 0-16.4 13.68-30.7 28.4v.05ZM643.55 151.42c-1.46-8.04-1.98-9.29-1.98-18.12V57.54c0-8.41 1.31-17.13 6.84-21.25-6-1.78-21.77-7.36-32.01-13.11-10.18-5.74-20.62-13.68-24.7-18.12 0 0-8.56 9.24-25.27 9.24s-28.82-7.88-28.82-7.88-13.31 19.74-36.86 29.34c2.51 3.03 5.53 8.56 5.53 14.88s.31 9.4 0 9.76c0 14.46-2.61 20.52-4.33 23.55 6.58 0 17.65-4.33 27-11.96 9.35-7.62 20-18.38 29.61-18.38h3.6s-9.56-7.36-9.56-16.6c0-7.36 5.8-14.15 14.93-14.15 8.51 0 12.37 7 13.05 9.76 2.45-6.32 3.45-9.29 5.9-13.37 2.51-4.07 6.37-7.26 6.37-7.26s1.04 6.11 1.04 12.58v44.85c0 2.82-.52 8.56-6.47 8.56s-17.34-8.51-27.73-19.84c0 0-11.44 10.86-24.75 19.74s-25.74 12.9-33.73 14.15c2.09 3.08 5.64 11.54 5.64 29.76 0 15.61-3.55 23.13-7.05 26.21 5.12 1.78 14.72 6.11 14.62 19.11 4.86-3.03 9.03-4.7 14.88-4.7 9.35 0 18.38 5.53 29.81 4.7v-2.51c0-5.12 1.98-10.86 13.63-16.13-3.5-.78-8.82-5.12-8.82-12.53V97.67c0-5.8 4.07-18.17 13.42-18.17 3.81 0 8.09 2.35 11.28 4.86s5.22 5.27 5.22 11.17v32.27c0 11.17-5.85 15.93-13.68 21.25 5.64.47 15.66 1.83 25.17 7.15s25.53 11.8 47.36 10.08c-2.3-1.78-7.73-6.89-9.14-14.93v.05Zm-103.07-8.15V99.93c0-3.39.37-6 .37-6 1.78 1.31 3.76 3.86 3.76 8.51v43.23c0 10.6 9.4 18.07 11.8 19.48-11.28-2.45-15.98-14.83-15.98-21.93zm17.02-62.71c-6.47 4.65-14.99 7.88-14.99 7.88s2.72-8.25 9.82-13.63c7.1-5.33 16.13-4.65 16.13-4.65s-4.54 5.74-11.02 10.34l.05.05Z" class="cls-1"/></g></svg>